<svg width="34" height="48" viewBox="0 0 34 48" fill="none" xmlns="http://www.w3.org/2000/svg">
<path d="M18.5399 42.3834C18.0854 42.3834 17.702 42.0426 17.3896 41.3609L5.84401 16.3101C5.7588 16.1112 5.64519 16.026 5.50318 16.0544C5.38957 16.0828 5.33276 16.2106 5.33276 16.4379V38.3361C5.33276 39.1314 5.46057 39.742 5.71619 40.168C6.00022 40.5657 6.49726 40.8213 7.20732 40.9349L7.76116 41.0201C8.1304 41.0485 8.31501 41.2189 8.31501 41.5314C8.31501 41.8438 8.10199 42 7.67596 42H1.58365C1.15761 42 0.944596 41.8438 0.944596 41.5314C0.944596 41.2189 1.12921 41.0485 1.49844 41.0201L2.05229 40.9349C2.79075 40.8213 3.30199 40.5657 3.58602 40.168C3.87004 39.742 4.01205 39.1314 4.01205 38.3361V14.1373C4.01205 13.5408 3.91264 13.1432 3.71383 12.9444C3.54341 12.7456 3.13158 12.5893 2.47832 12.4757L1.49844 12.3053C1.12921 12.2201 0.944596 12.0497 0.944596 11.7941C0.944596 11.4817 1.15761 11.3254 1.58365 11.3254H6.14223C6.85229 11.3254 7.34933 11.6379 7.63335 12.2627L17.6878 34.374C17.773 34.5444 17.8724 34.6154 17.986 34.587C18.128 34.5586 18.199 34.4592 18.199 34.2888V14.9893C18.199 14.0805 18.0428 13.4556 17.7304 13.1148C17.418 12.7456 17.0203 12.5183 16.5375 12.4331L15.7706 12.3053C15.4014 12.2201 15.2168 12.0497 15.2168 11.7941C15.2168 11.4817 15.4298 11.3254 15.8558 11.3254H21.9481C22.3742 11.3254 22.5872 11.4817 22.5872 11.7941C22.5872 12.1065 22.4026 12.2769 22.0334 12.3053L21.4795 12.3905C20.741 12.5041 20.2298 12.7456 19.9458 13.1148C19.6618 13.4556 19.5197 14.0805 19.5197 14.9893V41.0201C19.5197 41.5314 19.4203 41.8864 19.2215 42.0852C19.0511 42.284 18.8239 42.3834 18.5399 42.3834Z" fill="white"/>
<path d="M25.522 5.40205L24.5028 7.88846L22.886 8.75665L24.3887 10.8584L26.0054 9.99024L29.0281 10.3062L25.522 5.40205Z" stroke="white" stroke-width="0.595942" stroke-linecap="round" stroke-linejoin="round"/>
<path d="M29.0744 5.25242C29.0874 5.19264 29.1172 5.13656 29.1612 5.08918C29.2052 5.0418 29.2621 5.00458 29.3267 4.98083C29.3913 4.95707 29.4617 4.94752 29.5316 4.95303C29.6015 4.95854 29.6688 4.97893 29.7274 5.01239C29.786 5.04585 29.8342 5.09134 29.8676 5.14482C29.9011 5.19831 29.9187 5.25812 29.9191 5.31895C29.9194 5.37979 29.9024 5.43975 29.8696 5.49351C29.8367 5.54727 29.7891 5.59317 29.7308 5.62712L28.1445 6.56023M31.376 7.20519C31.4449 7.2168 31.5161 7.21348 31.5831 7.19551C31.6502 7.17755 31.7111 7.14551 31.7604 7.10223C31.8098 7.05896 31.846 7.00579 31.8659 6.94746C31.8858 6.88912 31.8888 6.82743 31.8745 6.76786C31.8603 6.70829 31.8293 6.65269 31.7843 6.60601C31.7393 6.55933 31.6817 6.523 31.6166 6.50027C31.5515 6.47753 31.4809 6.46909 31.4111 6.47569C31.3413 6.4823 31.2745 6.50374 31.2166 6.53811L29.1016 7.78226M30.8847 4.88812C30.9013 4.81365 30.9387 4.74386 30.9938 4.68493C31.0489 4.626 31.1199 4.57974 31.2005 4.55024C31.2811 4.52075 31.3689 4.50892 31.456 4.51582C31.5432 4.52271 31.627 4.54811 31.7002 4.58977C31.7733 4.63143 31.8334 4.68807 31.8753 4.75467C31.9172 4.82127 31.9394 4.89578 31.9402 4.97162C31.9409 5.04746 31.92 5.12228 31.8794 5.18948C31.8389 5.25667 31.7798 5.31416 31.7075 5.35686L28.623 7.17124" stroke="#FFFEFE" stroke-width="0.426035" stroke-linecap="round" stroke-linejoin="round"/>
</svg>
