<svg width="12" height="10" viewBox="0 0 12 10" fill="none" xmlns="http://www.w3.org/2000/svg">
<path d="M4.13769 2.34345L3.1185 4.82987L1.50176 5.69806L3.00439 7.79983L4.62114 6.93164L7.64383 7.24759L4.13769 2.34345Z" stroke="white" stroke-width="0.595942" stroke-linecap="round" stroke-linejoin="round"/>
<path d="M7.69008 2.19383C7.70307 2.13404 7.7329 2.07797 7.77692 2.03059C7.82094 1.98321 7.87779 1.94598 7.94241 1.92223C8.00703 1.89848 8.07742 1.88893 8.14732 1.89444C8.21723 1.89994 8.28448 1.92033 8.34309 1.95379C8.40171 1.98725 8.44989 2.03275 8.48333 2.08623C8.51677 2.13971 8.53445 2.19953 8.53479 2.26036C8.53513 2.32119 8.51813 2.38115 8.48528 2.43492C8.45244 2.48868 8.40478 2.53458 8.34654 2.56853L6.76025 3.50164M9.99175 4.14659C10.0607 4.1582 10.1318 4.15488 10.1989 4.13692C10.2659 4.11896 10.3268 4.08692 10.3762 4.04364C10.4255 4.00037 10.4617 3.9472 10.4816 3.88886C10.5015 3.83053 10.5045 3.76883 10.4903 3.70927C10.476 3.6497 10.445 3.5941 10.4 3.54742C10.355 3.50073 10.2974 3.46441 10.2323 3.44168C10.1672 3.41894 10.0966 3.4105 10.0268 3.4171C9.95706 3.4237 9.89024 3.44514 9.83233 3.47952L7.71729 4.72366M9.50043 1.82953C9.51698 1.75505 9.55446 1.68527 9.60954 1.62634C9.66462 1.5674 9.73561 1.52115 9.81623 1.49165C9.89685 1.46215 9.98462 1.45033 10.0718 1.45722C10.1589 1.46412 10.2428 1.48952 10.3159 1.53118C10.389 1.57284 10.4492 1.62947 10.491 1.69607C10.5329 1.76267 10.5552 1.83719 10.5559 1.91303C10.5566 1.98887 10.5358 2.06369 10.4952 2.13088C10.4546 2.19808 10.3955 2.25557 10.3232 2.29827L7.23877 4.11265" stroke="#FFFEFE" stroke-width="0.426035" stroke-linecap="round" stroke-linejoin="round"/>
</svg>
